:SAMPLES-PER-SECOND 30
:FRAME-RANGE 1-4244
:FULLY-SPECIFIED
:DEGREES
1062
root  60.6307 36.889 -90.1853 -74.2314 -86.2128 81.1859
RightUpLeg  7.5323 -16.5285 -2.48777
RightLeg  33.1929 17.3326 11.6437
RightFoot  -18.6705 0.400203 8.21604
RightToes  -3.31784e-009 0 -3.6325e-017
Spine  15.5288 6.09755 7.80535
Spine1  -2.13596 8.39825 -7.09868
HEad  -8.11067 36.3577 -16.0395
LeftShoulder1  0.530939 1.99694 -29.1209
LeftArm  -9.73343 28.0362 -14.6819
LeftForeArm  -2.72712 -7.48021 -14.2784
LeftHand  0.146998 2.43616 -6.4624
RightShoulder  15.2708 20.8266 54.7378
RightArm  25.6384 5.11484 23.708
RightForeArm  30.5572 67.0231 24.1434
RightHand  0.565711 3.61918 7.02466
LeftUpLeg  -32.0175 8.47186 -20.6325
LeftLeg  30.4257 17.4923 11.125
LeftFoot  -11.9903 0.11078 6.80549
LeftToes  1.0277e-010 -6.71454e-011 3.04227e-011
1063
root  59.7458 36.6494 -90.5383 -82.9436 -84.8694 89.3929
RightUpLeg  1.1626 -14.9624 -5.42071
RightLeg  48.206 16.6786 18.7384
RightFoot  -10.285 -0.271498 21.5619
RightToes  -3.31784e-009 0 -3.6325e-017
Spine  17.126 6.02412 5.7691
Spine1  -1.63991 8.29733 -7.93654
HEad  -10.4381 42.9739 -18.6136
LeftShoulder1  0.711956 1.52473 -29.8801
LeftArm  -13.9047 24.3462 -18.4137
LeftForeArm  1.03038 -3.00961 -15.0545
LeftHand  0.158079 2.20029 -6.33138
RightShoulder  14.6609 20.5721 53.1712
RightArm  24.0565 5.23743 24.139
RightForeArm  27.1248 58.9478 16.3656
RightHand  0.506901 4.76869 5.48502
LeftUpLeg  -31.6491 8.82966 -21.359
LeftLeg  33.7647 17.5631 12.5924
LeftFoot  -14.0862 0.254609 7.0789
LeftToes  1.0277e-010 -6.71454e-011 3.04227e-011
1064
root  58.7745 36.3805 -90.8198 -81.2756 -83.8803 88.1454
RightUpLeg  -7.35737 -11.8838 -7.05499
RightLeg  60.2843 10.8148 19.2352
RightFoot  -1.32044 -2.38899 26.6864
RightToes  -3.31784e-009 0 -3.6325e-017
Spine  17.1708 5.59763 4.77754
Spine1  -1.63275 7.84296 -9.20511
HEad  -10.297 48.3236 -19.9154
LeftShoulder1  0.786129 1.35903 -30.5698
LeftArm  -10.9149 21.0392 -21.7978
LeftForeArm  5.8111 -3.08162 -15.4844
LeftHand  0.286036 -0.035061 -6.16494
RightShoulder  14.0885 20.081 52.193
RightArm  24.1207 5.27016 22.7669
RightForeArm  22.8978 50.5295 11.8725
RightHand  0.394894 5.04448 4.08059
LeftUpLeg  -32.102 10.2777 -22.0795
LeftLeg  37.0496 15.5257 12.6076
LeftFoot  -17.3466 0.368765 5.03887
LeftToes  1.0277e-010 -6.71454e-011 3.04227e-011
1065
root  57.6596 36.4221 -91.0535 -67.6121 -82.5515 74.1706
RightUpLeg  -13.9266 -9.81128 -9.35799
RightLeg  68.2355 4.51827 11.6793
RightFoot  -2.45672 -1.82903 23.0329
RightToes  -3.31784e-009 0 -3.6325e-017
Spine  17.8552 4.78452 3.75135
Spine1  -2.15576 6.78199 -9.11192
HEad  -9.7269 50.8994 -20.4429
LeftShoulder1  0.845522 1.26137 -31.6302
LeftArm  -1.09132 18.2676 -25.1596
LeftForeArm  10.2822 -8.44941 -14.4538
LeftHand  0.342334 -2.52351 -4.83172
RightShoulder  12.5087 18.2259 50.3494
RightArm  24.5927 5.16854 20.9366
RightForeArm  19.9431 44.1583 9.50724
RightHand  0.282773 5.26461 2.76421
LeftUpLeg  -29.6174 10.9893 -22.4074
LeftLeg  37.1932 13.5102 11.1573
LeftFoot  -19.171 0.410304 4.31
LeftToes  1.0277e-010 -6.71454e-011 3.04227e-011
1066
root  56.3979 36.5698 -91.2365 -53.2527 -81.096 59.166
RightUpLeg  -19.4322 -7.35777 -11.5934
RightLeg  72.3516 1.06838 2.87547
RightFoot  -2.9249 -1.27517 16.9428
RightToes  -3.31784e-009 0 -3.6325e-017
Spine  18.1997 4.15779 3.79763
Spine1  -2.12083 6.09983 -8.76411
HEad  -10.2938 51.0609 -21.5909
LeftShoulder1  0.957751 1.00241 -32.2182
LeftArm  11.6002 15.583 -29.0232
LeftForeArm  11.5885 -15.4928 -10.4363
LeftHand  0.113874 -3.71945 -1.19552
RightShoulder  10.1288 15.0515 47.7698
RightArm  23.1896 4.28791 18.8967
RightForeArm  17.7783 40.8532 8.53469
RightHand  0.221887 5.32582 2.08648
LeftUpLeg  -25.9628 9.49011 -21.6052
LeftLeg  36.8291 12.8206 10.5025
LeftFoot  -20.5141 0.394502 3.38039
LeftToes  1.0277e-010 -6.71454e-011 3.04227e-011
1067
root  55.0581 36.8161 -91.4117 -41.7089 -79.4253 47.3103
RightUpLeg  -24.2754 -4.82764 -13.9286
RightLeg  72.0943 -0.88994 -4.02841
RightFoot  -4.06556 -0.754765 11.3988
RightToes  -3.31784e-009 0 -3.6325e-017
Spine  17.8419 3.67473 4.11862
Spine1  -2.0369 5.63059 -8.39157
HEad  -10.7247 50.3329 -22.1517
LeftShoulder1  1.03015 0.804666 -32.0986
LeftArm  18.2304 14.4946 -31.9245
LeftForeArm  9.48847 -23.3632 -4.56108
LeftHand  -0.0187022 -4.14026 0.502032
RightShoulder  8.21332 12.2579 45.5715
RightArm  21.2397 2.19539 15.7155
RightForeArm  14.4496 39.6067 8.35737
RightHand  0.165609 4.92737 1.55974
LeftUpLeg  -22.1433 7.77852 -20.4796
LeftLeg  35.4948 12.509 9.80863
LeftFoot  -21.5605 0.34376 2.39577
LeftToes  1.0277e-010 -6.71454e-011 3.04227e-011
1068
root  53.6261 37.1529 -91.5634 -31.8002 -77.8121 36.9921
RightUpLeg  -27.4221 -2.66287 -15.9806
RightLeg  67.3126 -2.69752 -7.76668
RightFoot  -6.01907 -0.394106 7.58534
RightToes  -3.31784e-009 0 -3.6325e-017
Spine  17.3666 3.09865 4.69531
Spine1  -2.26782 5.03261 -7.64405
HEad  -10.595 49.7904 -22.0886
LeftShoulder1  0.967505 0.945106 -31.7426
LeftArm  9.90639 14.3485 -32.244
LeftForeArm  19.7218 -31.2043 -5.72867
LeftHand  0.0168738 -4.28487 0.0766321
RightShoulder  6.65002 9.86263 43.4326
RightArm  18.7663 -0.00653231 13.221
RightForeArm  12.7582 37.6782 7.87937
RightHand  0.0292974 3.88388 0.102108
LeftUpLeg  -17.8955 6.91812 -18.7018
LeftLeg  33.3523 11.2777 8.26929
LeftFoot  -22.2699 0.275869 1.48564
LeftToes  1.0277e-010 -6.71454e-011 3.04227e-011
1069
root  52.1624 37.5095 -91.695 -22.4174 -76.0834 27.1849
RightUpLeg  -28.6686 -1.16552 -17.3073
RightLeg  58.2825 -5.31812 -9.65366
RightFoot  -7.04088 -0.332005 7.55408
RightToes  -3.31784e-009 0 -3.6325e-017
Spine  16.8163 2.39844 5.88901
Spine1  -2.65137 4.36318 -6.68387
HEad  -10.1083 49.2568 -22.0144
LeftShoulder1  0.943407 0.979671 -31.3035
LeftArm  4.57809 14.6712 -31.0116
LeftForeArm  27.4515 -39.2985 -7.42949
LeftHand  -0.0117296 -4.39258 0.422403
RightShoulder  5.12822 7.32831 41.2049
RightArm  17.086 -1.64641 11.195
RightForeArm  12.2563 36.3488 7.52492
RightHand  -0.0238949 4.16899 -0.565466
LeftUpLeg  -13.5394 6.16951 -16.3223
LeftLeg  30.6106 10.4317 6.96935
LeftFoot  -23.1056 0.119706 -0.184655
LeftToes  1.0277e-010 -6.71454e-011 3.04227e-011
1070
root  50.6365 37.8095 -91.8136 -16.0422 -74.2007 20.3891
RightUpLeg  -27.8676 -0.46951 -18.3963
RightLeg  45.9415 -7.58905 -8.62081
RightFoot  -6.57976 -0.410903 8.78722
RightToes  -3.31784e-009 0 -3.6325e-017
Spine  15.6776 1.81349 6.89489
Spine1  -2.46358 3.74549 -5.7179
HEad  -9.90202 48.686 -22.1794
LeftShoulder1  0.906417 1.04134 -30.7325
LeftArm  0.474323 14.827 -28.5587
LeftForeArm  31.1732 -45.8419 -9.32189
LeftHand  -0.011689 -3.94871 0.41222
RightShoulder  3.80152 4.89366 39.2596
RightArm  15.1182 -2.92467 9.73841
RightForeArm  10.0732 35.6023 7.44641
RightHand  -0.0263371 2.91773 -0.590448
LeftUpLeg  -9.01907 5.24593 -13.9326
LeftLeg  27.6061 9.26352 5.57913
LeftFoot  -23.0846 0.114241 -0.236873
LeftToes  1.0277e-010 -6.71454e-011 3.04227e-011
1071
root  49.0181 37.958 -91.969 -11.6819 -72.1794 15.2922
RightUpLeg  -25.4738 -0.396743 -18.722
RightLeg  33.0801 -6.54386 -4.81006
RightFoot  -6.28708 -0.494098 10.1973
RightToes  -3.31784e-009 0 -3.6325e-017
Spine  14.4151 1.31975 7.45874
Spine1  -1.89183 3.06816 -4.50116
HEad  -8.86596 48.6504 -21.6076
LeftShoulder1  0.863609 1.11336 -30.0422
LeftArm  -3.42061 14.989 -25.415
LeftForeArm  31.4946 -51.1057 -11.4427
LeftHand  0.028179 -3.19486 -0.146834
RightShoulder  2.88928 3.08694 37.9088
RightArm  14.1895 -3.82997 8.43828
RightForeArm  7.8916 35.7532 7.62015
RightHand  -0.0800114 3.24311 -1.31385
LeftUpLeg  -4.57749 4.65534 -11.3876
LeftLeg  25.4376 7.68957 4.32083
LeftFoot  -23.5126 0.0503383 -0.85197
LeftToes  1.0277e-010 -6.71454e-011 3.04227e-011
